<svg width="79" height="79" viewBox="0 0 79 79" fill="none" xmlns="http://www.w3.org/2000/svg">
<path d="M17.2812 37.0312H66.6562C67.311 37.0312 67.9389 37.2914 68.4019 37.7543C68.8649 38.2173 69.125 38.8452 69.125 39.5C69.125 40.1548 68.8649 40.7827 68.4019 41.2457C67.9389 41.7087 67.311 41.9688 66.6562 41.9688H17.2812C16.6265 41.9688 15.9986 41.7087 15.5356 41.2457C15.0726 40.7827 14.8125 40.1548 14.8125 39.5C14.8125 38.8452 15.0726 38.2173 15.5356 37.7543C15.9986 37.2914 16.6265 37.0312 17.2812 37.0312Z" fill="white"/>
<path d="M18.3033 39.5L38.7791 59.9709C39.2427 60.4345 39.5031 61.0632 39.5031 61.7188C39.5031 62.3744 39.2427 63.0031 38.7791 63.4667C38.3156 63.9302 37.6868 64.1907 37.0313 64.1907C36.3757 64.1907 35.747 63.9302 35.2834 63.4667L13.0646 41.2479C12.8347 41.0186 12.6523 40.7461 12.5279 40.4462C12.4034 40.1463 12.3394 39.8247 12.3394 39.5C12.3394 39.1753 12.4034 38.8538 12.5279 38.5538C12.6523 38.2539 12.8347 37.9815 13.0646 37.7521L35.2834 15.5334C35.747 15.0698 36.3757 14.8094 37.0313 14.8094C37.6868 14.8094 38.3156 15.0698 38.7791 15.5334C39.2427 15.9969 39.5031 16.6257 39.5031 17.2813C39.5031 17.9368 39.2427 18.5656 38.7791 19.0291L18.3033 39.5Z" fill="white"/>
</svg>
