<svg width="64" height="64" viewBox="0 0 64 64" fill="none" xmlns="http://www.w3.org/2000/svg">
<rect x="0.500122" y="0.5" width="63" height="63" rx="31.5" stroke="#F9F6F3"/>
<path d="M18.2222 15.3183C18.3304 13.4049 18.7874 12.5728 20.0981 11.9047C21.5085 11.1855 23.7328 11.5202 26.3502 12.8456C27.4775 13.4167 27.5923 13.4283 29.5681 13.175C32.1942 12.8382 35.5751 12.8394 37.9989 13.1781C39.8319 13.4343 39.9523 13.4215 41.0824 12.8491C44.7976 10.9678 47.7308 11.0909 48.7929 13.1727C49.323 14.2118 49.4215 16.9081 49.0104 19.132C48.7825 20.3649 48.8066 20.5188 49.3557 21.3279C53.2188 27.0206 50.4353 36.2482 43.8157 39.6918C43.3092 39.9554 42.8823 40.1185 42.5344 40.2513C41.4661 40.6592 41.1418 40.7831 41.5345 42.6607C41.7236 43.5638 41.9513 45.8092 42.0409 47.6507C42.2026 50.9793 42.2002 51.0025 41.6164 51.6816C40.8218 52.6054 39.6764 52.621 38.9004 51.7186C38.3942 51.1302 38.3448 50.8523 38.3448 48.5818C38.3448 45.2266 37.977 42.9965 37.1081 41.0855C36.0747 38.8114 36.8408 37.9634 39.2039 37.4552C42.4885 36.7486 45.0539 34.7215 46.4838 31.7029C47.8433 28.8334 48.0482 24.8681 45.5904 22.4564C44.8914 21.6258 44.8427 20.8734 45.3418 18.6047C45.5283 17.7568 45.6847 16.6629 45.6894 16.1735C45.6964 15.4008 45.626 15.2841 45.1514 15.2841C44.8511 15.2841 43.7035 15.721 42.6016 16.2549L40.8429 17.1073C40.683 17.1848 40.5041 17.2146 40.3277 17.1943C35.8557 16.681 31.6065 16.6731 27.1126 17.1963C26.9355 17.217 26.7558 17.1872 26.5954 17.1093L24.8376 16.2563C23.7356 15.7215 22.5881 15.2841 22.2879 15.2841C21.5936 15.2841 21.5832 15.7967 22.216 18.8419C22.6025 20.7017 22.8627 21.1161 21.7452 22.6032C20.0701 24.8323 19.6517 27.6003 20.55 30.5085C21.6821 34.1734 24.4543 36.6493 28.3518 37.4753C30.7013 37.9733 31.3154 38.623 30.4182 41.3172C29.712 43.4373 29.2655 43.9838 28.2391 43.9838C26.8582 43.9838 25.9932 42.7876 26.4692 41.5358C26.6789 40.9841 26.6165 40.9252 25.3229 40.4534C21.374 39.0137 18.3536 35.7866 16.9727 31.5315C15.9054 28.2428 16.375 23.9623 18.0873 21.3751C18.6703 20.4942 18.6793 20.4194 18.4072 18.733C18.2533 17.7784 18.17 16.2419 18.2222 15.3183Z" fill="#F9F6F3"/>
<path d="M16.8433 39.3759C16.2743 38.5224 15.121 38.2917 14.2674 38.8608C13.4138 39.4298 13.1832 40.5831 13.7522 41.4366C14.1723 42.0668 14.6749 42.5845 15.1017 43.0112C15.1804 43.09 15.2569 43.1659 15.3315 43.24C15.689 43.5952 16.0047 43.9087 16.3217 44.281C17.023 45.1041 17.7225 46.2126 18.1201 48.2005C18.2972 49.086 18.9337 49.563 19.2863 49.7714C19.6688 49.9973 20.0867 50.1305 20.4306 50.2172C21.134 50.3946 21.988 50.4867 22.7984 50.5404C23.6881 50.5995 24.6521 50.6186 25.5141 50.6238C25.5147 51.649 26.3461 52.48 27.3716 52.48C28.3974 52.48 29.2291 51.6484 29.2291 50.6225V48.765C29.2291 47.7391 28.3974 46.9075 27.3716 46.9075C27.1965 46.9075 27.007 46.9081 26.8063 46.9088C25.7162 46.9121 24.2953 46.9164 23.0439 46.8336C22.4405 46.7936 21.9444 46.737 21.5807 46.6677C21.0205 44.4686 20.1155 43.0054 19.1498 41.8718C18.7229 41.3708 18.2808 40.9325 17.9213 40.5758C17.854 40.5091 17.7895 40.4453 17.7286 40.3843C17.3138 39.9695 17.0424 39.6746 16.8433 39.3759Z" fill="#F9F6F3"/>
</svg>
